<svg width="24" height="24" viewBox="0 0 24 24" fill="none" xmlns="http://www.w3.org/2000/svg">
<path d="M4.78253 11.6331H8.85346C9.97296 11.6331 10.8889 10.7171 10.8889 9.5976V5.52667C10.8889 4.40717 9.97296 3.49121 8.85346 3.49121H4.78253C3.66303 3.49121 2.74707 4.40717 2.74707 5.52667V9.5976C2.74707 10.7171 3.66303 11.6331 4.78253 11.6331ZM4.78253 5.52667H8.85346V9.5976H4.78253V5.52667Z" fill="#178733"/>
<path d="M14.9593 21.8105H19.0302C20.1497 21.8105 21.0657 20.8945 21.0657 19.775V15.7041C21.0657 14.5846 20.1497 13.6686 19.0302 13.6686H14.9593C13.8398 13.6686 12.9238 14.5846 12.9238 15.7041V19.775C12.9238 20.8945 13.8398 21.8105 14.9593 21.8105ZM14.9593 15.7041H19.0302V19.775H14.9593V15.7041Z" fill="#178733"/>
<path d="M4.78253 21.8105H8.85346C9.97296 21.8105 10.8889 20.8945 10.8889 19.775V15.7041C10.8889 14.5846 9.97296 13.6686 8.85346 13.6686H4.78253C3.66303 13.6686 2.74707 14.5846 2.74707 15.7041V19.775C2.74707 20.8945 3.66303 21.8105 4.78253 21.8105ZM4.78253 15.7041H8.85346V19.775H4.78253V15.7041Z" fill="#178733"/>
<path d="M12.7432 9.1865L15.7434 11.9382C16.5684 12.6949 17.8626 12.639 18.6193 11.8139L21.3709 8.81378C22.1276 7.98875 22.0717 6.69459 21.2467 5.93789L18.2465 3.18623C17.4215 2.42952 16.1274 2.48543 15.3707 3.31047L12.619 6.3106C11.8623 7.13564 11.9182 8.42979 12.7432 9.1865ZM19.8709 7.43795L17.1192 10.4381L14.1191 7.68643L16.8707 4.6863L19.8709 7.43795Z" fill="#178733"/>
</svg>
