<svg width="14" height="14" viewBox="0 0 14 14" fill="none" xmlns="http://www.w3.org/2000/svg">
<path fill-rule="evenodd" clip-rule="evenodd" d="M7.5266 13.9996H2.21606C0.993403 13.9996 0 13.0304 0 11.8375V2.16996C0 0.97705 0.993403 0.0078125 2.21606 0.0078125H7.5266C8.74925 0.0078125 9.74266 0.97705 9.74266 2.16996V2.17824C9.74266 2.55103 9.4285 2.85754 9.04642 2.85754C8.66434 2.85754 8.35019 2.55103 8.35019 2.17824V2.16996C8.35019 1.72262 7.9766 1.3664 7.5266 1.3664H2.21606C1.75756 1.3664 1.39247 1.7309 1.39247 2.16996V11.8375C1.39247 12.2848 1.76605 12.641 2.21606 12.641H7.5266C7.98509 12.641 8.35019 12.2765 8.35019 11.8375V10.5203C8.35019 10.1475 8.66434 9.84101 9.04642 9.84101C9.4285 9.84101 9.74266 10.1475 9.74266 10.5203V11.8375C9.74266 13.0304 8.74925 13.9996 7.5266 13.9996ZM10.9522 9.33469C9.27105 9.33469 7.90405 8.00095 7.90405 6.3607C7.90405 4.72046 9.27105 3.38672 10.9522 3.38672C12.6333 3.38672 14.0003 4.72046 14.0003 6.3607C14.0003 7.21368 13.6307 7.98377 13.0394 8.5265L13.7777 9.44291C13.9645 9.67486 13.9221 10.0145 13.6759 10.205C13.574 10.2796 13.4551 10.321 13.3362 10.321C13.1749 10.321 13.0136 10.2465 12.9032 10.1139L12.1002 9.11585C11.7458 9.25692 11.3581 9.33469 10.9522 9.33469ZM10.9522 4.6459C9.98426 4.6459 9.19463 5.41632 9.19463 6.3607C9.19463 7.30509 9.98426 8.07551 10.9522 8.07551C11.9201 8.07551 12.7098 7.30509 12.7098 6.3607C12.7098 5.41632 11.9286 4.6459 10.9522 4.6459Z" fill="#F27C0E"/>
</svg>
