<svg width="24" height="24" viewBox="0 0 24 24" fill="none" xmlns="http://www.w3.org/2000/svg">
<circle cx="12" cy="12" r="12" fill="#F2B518"/>
<path fill-rule="evenodd" clip-rule="evenodd" d="M7.47385 6.75035C7.56128 6.623 7.70583 6.54691 7.86029 6.54691H15.6029C15.7613 6.54691 15.909 6.62691 15.9956 6.75958L17.8816 9.65134C17.9862 9.8117 17.9827 10.0196 17.8729 10.1764L12.2148 18.2533C12.1282 18.3769 11.9875 18.4513 11.8366 18.4531C11.6857 18.455 11.5432 18.384 11.4536 18.2626L5.49773 10.1856C5.37922 10.0249 5.37553 9.80673 5.48856 9.64211L7.47385 6.75035ZM7.86029 7.84385L8.95519 9.43866H6.7654L7.86029 7.84385ZM6.80306 10.3762L10.8156 15.8177L9.4781 10.3762H6.80306ZM10.736 9.43866L11.8309 7.84385L12.9258 9.43866H10.736ZM13.2183 10.3762L11.8309 16.0206L10.4435 10.3762H13.2183ZM12.8839 15.6642L14.1837 10.3762H16.5883L12.8839 15.6642ZM16.6236 9.43866H14.6568L15.6136 7.89012L16.6236 9.43866ZM14.7623 7.48441H12.7213L13.7955 9.0491L14.7623 7.48441ZM10.9405 7.48441H8.75069L9.84559 9.07922L10.9405 7.48441Z" fill="#252525"/>
</svg>
