<svg width="14" height="12" viewBox="0 0 14 12" fill="none" xmlns="http://www.w3.org/2000/svg">
<path fill-rule="evenodd" clip-rule="evenodd" d="M12.968 2.38461H1.04048C0.465257 2.38461 0 1.85147 0 1.19231C0 0.533145 0.465257 0 1.04048 0H12.9595C13.5347 0 14 0.533145 14 1.19231C14 1.85147 13.5347 2.38461 12.968 2.38461ZM12.968 7.19229H1.04048C0.465257 7.19229 0 6.65915 0 5.99998C0 5.34082 0.465257 4.80768 1.04048 4.80768H12.9595C13.5347 4.80768 14 5.34082 14 5.99998C14 6.65915 13.5347 7.19229 12.968 7.19229ZM1.04048 12H7.95166C8.52689 12 8.98368 11.4668 8.98368 10.8077C8.98368 10.1485 8.51843 9.61536 7.9432 9.61536H1.04048C0.465257 9.61536 0 10.1485 0 10.8077C0 11.4668 0.465257 12 1.04048 12Z" fill="#8051FF"/>
</svg>
