<svg width="24" height="24" viewBox="0 0 24 24" fill="none" xmlns="http://www.w3.org/2000/svg">
<path d="M11.8914 18.7692L15.1855 9.90769H16.7059L20 18.7692H18.4796L17.7195 16.5169H14.2081L13.4118 18.7692H11.8914ZM14.6425 15.2246H17.2489L15.9819 11.5692H15.9095L14.6425 15.2246ZM6.17195 16.5538L5.15837 15.52L8.81448 11.7908C8.35596 11.2738 7.95487 10.7385 7.61122 10.1846C7.26709 9.63077 6.96833 9.04615 6.71493 8.43077H8.23529C8.45249 8.87385 8.68489 9.27385 8.93249 9.63077C9.17961 9.98769 9.47813 10.3631 9.82805 10.7569C10.359 10.1662 10.7994 9.56012 11.1493 8.93883C11.4992 8.31705 11.7949 7.65538 12.0362 6.95385H4V5.47692H9.06787V4H10.5158V5.47692H15.5837V6.95385H13.4842C13.2308 7.82769 12.8869 8.67692 12.4525 9.50154C12.0181 10.3262 11.4811 11.1015 10.8416 11.8277L12.5792 13.6369L12.0362 15.1508L9.79186 12.8615L6.17195 16.5538Z" fill="#252525"/>
<rect opacity="0.1" width="24" height="24" rx="12" fill="#252525"/>
</svg>
