<svg width="242" height="132" viewBox="0 0 242 132" fill="none" xmlns="http://www.w3.org/2000/svg">
<path d="M15.1411 51.6689C15.1411 49.2673 15.3929 47.1948 15.8965 45.4517C16.4388 43.6698 17.1748 42.2171 18.1045 41.0938C19.0342 39.9316 20.0994 39.0794 21.3003 38.5371C22.5399 37.9948 23.8569 37.7236 25.2515 37.7236C26.8397 37.7236 28.3892 38.111 29.8999 38.8857C31.4106 39.6605 32.7471 40.842 33.9092 42.4302C35.11 44.0184 36.0591 46.0327 36.7563 48.4731C37.4924 50.9136 37.8604 53.7995 37.8604 57.1309C37.8604 59.4551 37.7054 61.7793 37.3955 64.1035C37.1243 66.389 36.6789 68.5776 36.0591 70.6694C36.4852 70.8244 36.8919 70.9212 37.2793 70.96C37.7054 70.96 38.1315 70.96 38.5576 70.96C39.8359 70.96 40.9593 70.7275 41.9277 70.2627C42.9349 69.7979 43.7871 69.1781 44.4844 68.4033C45.2204 67.6286 45.8014 66.7183 46.2275 65.6724C46.6536 64.6265 46.9635 63.5225 47.1572 62.3604C47.2347 61.8955 47.4865 61.5081 47.9126 61.1982C48.3774 60.8883 48.9004 60.6753 49.4814 60.5591C50.0625 60.4429 50.6629 60.4429 51.2827 60.5591C51.9412 60.6753 52.5029 60.9465 52.9678 61.3726C53.4326 61.7599 53.7619 62.3216 53.9556 63.0576C54.188 63.7549 54.188 64.6652 53.9556 65.7886C53.6069 67.4155 53.0259 68.9456 52.2124 70.3789C51.4377 71.7734 50.4499 73.013 49.249 74.0977C48.0482 75.1823 46.6343 76.0345 45.0073 76.6543C43.3804 77.2741 41.5597 77.584 39.5454 77.584C38.4608 77.584 37.4149 77.5259 36.4077 77.4097C35.4006 77.2935 34.4128 77.0804 33.4443 76.7705C31.9723 79.3271 30.0549 81.3802 27.6919 82.9297C25.3289 84.5179 22.4043 85.312 18.918 85.312C16.1676 85.312 13.7466 84.8278 11.6548 83.8594C9.60173 82.891 7.85856 81.5352 6.42529 79.792C5.03076 78.0101 3.96549 75.8989 3.22949 73.4585C2.53223 71.0181 2.18359 68.3452 2.18359 65.4399V8.6709C2.18359 7.81868 2.10612 7.14079 1.95117 6.63721C1.83496 6.13363 1.69938 5.74626 1.54443 5.4751C1.42822 5.1652 1.29264 4.93278 1.1377 4.77783C1.02148 4.58415 0.963379 4.39046 0.963379 4.19678C0.963379 3.96436 1.07959 3.77067 1.31201 3.61572C1.54443 3.46077 1.85433 3.3252 2.2417 3.20898C2.62907 3.09277 3.03581 3.0153 3.46191 2.97656C3.92676 2.89909 4.37223 2.86035 4.79834 2.86035C6.77393 2.86035 8.3234 3.3833 9.44678 4.4292C10.6089 5.43636 11.1899 6.65658 11.1899 8.08984V63.813C11.1899 65.7886 11.3643 67.6092 11.7129 69.2749C12.0615 70.9406 12.5845 72.3932 13.2817 73.6328C13.979 74.8337 14.8506 75.7827 15.8965 76.48C16.9811 77.1385 18.2401 77.4678 19.6733 77.4678C21.1453 77.4678 22.4043 77.0998 23.4502 76.3638C24.4961 75.589 25.3677 74.5625 26.0649 73.2842C24.3605 72.0833 22.8304 70.6888 21.4746 69.1006C20.1576 67.4736 19.0148 65.7305 18.0464 63.8711C17.1167 61.973 16.4001 59.9974 15.8965 57.9443C15.3929 55.8525 15.1411 53.7607 15.1411 51.6689ZM22.5205 51.2041C22.5205 54.0706 23.0241 56.7822 24.0312 59.3389C25.0771 61.8955 26.4717 64.1035 28.2148 65.9629C28.4473 64.5684 28.6022 63.1932 28.6797 61.8374C28.7572 60.4429 28.7959 59.1839 28.7959 58.0605C28.7959 54.0706 28.3698 50.991 27.5176 48.8218C26.7041 46.6525 25.755 45.5679 24.6704 45.5679C23.8957 45.5679 23.334 46.0908 22.9854 47.1367C22.6755 48.1439 22.5205 49.4997 22.5205 51.2041ZM73.0723 85.312C71.6777 85.312 70.2445 85.099 68.7725 84.6729C67.3392 84.2467 66.0221 83.5107 64.8213 82.4648C63.6592 81.4189 62.6908 80.0438 61.916 78.3394C61.18 76.5962 60.812 74.4076 60.812 71.7734C60.812 67.9385 61.3156 63.8905 62.3228 59.6294C63.3687 55.3296 64.86 50.6037 66.7969 45.4517H57.7324H56.396C56.3573 46.6138 56.2798 48.0858 56.1636 49.8677C56.0861 51.6496 55.9312 53.5477 55.6987 55.562C55.4663 57.5763 55.1564 59.61 54.769 61.6631C54.4204 63.7161 53.9749 65.6143 53.4326 67.3574C53.0452 68.597 52.4255 69.3136 51.5732 69.5073C50.7598 69.701 49.9463 69.5654 49.1328 69.1006C48.3193 68.597 47.6608 67.8804 47.1572 66.9507C46.6536 66.021 46.5374 65.0526 46.8086 64.0454C47.1185 62.8446 47.3896 61.3919 47.6221 59.6875C47.8545 57.9443 48.0288 56.1237 48.145 54.2256C48.3 52.2887 48.4162 50.3713 48.4937 48.4731C48.5711 46.5363 48.6292 44.8125 48.668 43.3018C47.196 42.4883 45.9757 41.4618 45.0073 40.2222C44.0389 38.9438 43.5547 37.4331 43.5547 35.6899C43.5547 34.8765 43.7096 34.1405 44.0195 33.4819C44.3682 32.7847 44.8136 32.2036 45.356 31.7388C45.8983 31.2352 46.5374 30.8672 47.2734 30.6348C48.0094 30.3636 48.7648 30.228 49.5396 30.228C50.2368 30.228 50.9535 30.3249 51.6895 30.5186C52.4642 30.7122 53.1808 31.0609 53.8394 31.5645C54.5366 32.068 55.1564 32.7266 55.6987 33.54C56.241 34.3535 56.6865 35.3607 57.0352 36.5615C58.0036 36.6777 58.8171 36.7746 59.4756 36.8521C60.1729 36.8908 60.7539 36.9295 61.2188 36.9683C61.6836 37.007 62.071 37.0264 62.3809 37.0264C62.6908 37.0264 63.0007 37.0264 63.3105 37.0264H69.5278C69.8765 37.0264 70.38 37.2394 71.0386 37.6655C71.7358 38.0916 72.4137 38.6533 73.0723 39.3506C73.7308 40.0091 74.2731 40.7257 74.6992 41.5005C75.1641 42.2752 75.3384 43.0112 75.2222 43.7085C75.2222 43.9409 75.0866 44.5026 74.8154 45.3936C74.5443 46.2845 74.215 47.4079 73.8276 48.7637C73.4403 50.1195 73.0142 51.6883 72.5493 53.4702C72.0845 55.2134 71.6584 57.0534 71.271 58.9902C70.8836 60.9271 70.5544 62.9414 70.2832 65.0332C70.012 67.0863 69.8765 69.1006 69.8765 71.0762C69.8765 71.8896 69.9733 72.6838 70.167 73.4585C70.3607 74.2332 70.6512 74.9305 71.0386 75.5503C71.4259 76.1313 71.9102 76.5962 72.4912 76.9448C73.111 77.2935 73.8276 77.4678 74.6411 77.4678C75.9969 77.4678 77.159 77.0417 78.1274 76.1895C79.0959 75.3372 79.9093 74.272 80.5679 72.9937C81.2264 71.7153 81.7493 70.3402 82.1367 68.8682C82.5628 67.3574 82.9115 65.9435 83.1826 64.6265C83.415 63.3869 83.8024 62.4959 84.3447 61.9536C84.887 61.3726 85.4487 61.082 86.0298 61.082C86.4946 61.082 86.9788 61.237 87.4824 61.5469C87.986 61.818 88.4315 62.186 88.8188 62.6509C89.245 63.1157 89.5742 63.6387 89.8066 64.2197C90.0778 64.8008 90.2134 65.3818 90.2134 65.9629C90.2134 66.1566 90.194 66.3115 90.1553 66.4277C90.1165 66.5439 90.0972 66.6602 90.0972 66.7764C89.5549 68.752 88.8382 70.8244 87.9473 72.9937C87.0951 75.1629 85.991 77.1579 84.6353 78.9785C83.2795 80.7992 81.6525 82.3099 79.7544 83.5107C77.8563 84.7116 75.6289 85.312 73.0723 85.312ZM90.0391 24.7661C89.0706 24.7661 88.141 24.5724 87.25 24.1851C86.3978 23.7977 85.6424 23.2747 84.9839 22.6162C84.3641 21.9577 83.8605 21.2023 83.4731 20.3501C83.0858 19.4591 82.8921 18.5101 82.8921 17.5029C82.8921 16.457 83.0858 15.4886 83.4731 14.5977C83.8605 13.7067 84.3641 12.9513 84.9839 12.3315C85.6424 11.673 86.3978 11.1694 87.25 10.8208C88.141 10.4334 89.0706 10.2397 90.0391 10.2397C91.085 10.2397 92.0534 10.4334 92.9443 10.8208C93.8353 11.1694 94.5907 11.673 95.2104 12.3315C95.869 12.9513 96.3726 13.7067 96.7212 14.5977C97.1086 15.4886 97.3022 16.457 97.3022 17.5029C97.3022 18.5101 97.1086 19.4591 96.7212 20.3501C96.3726 21.2023 95.869 21.9577 95.2104 22.6162C94.5907 23.2747 93.8353 23.7977 92.9443 24.1851C92.0534 24.5724 91.085 24.7661 90.0391 24.7661ZM92.77 72.0059C92.77 72.277 92.7894 72.7225 92.8281 73.3423C92.8669 73.9233 92.9831 74.5238 93.1768 75.1436C93.3704 75.7633 93.6803 76.3057 94.1064 76.7705C94.5326 77.2354 95.133 77.4678 95.9077 77.4678C97.0698 77.4678 98.077 77.0417 98.9292 76.1895C99.8201 75.3372 100.576 74.272 101.195 72.9937C101.854 71.7153 102.396 70.3402 102.822 68.8682C103.248 67.3574 103.597 65.9435 103.868 64.6265C104.101 63.4256 104.449 62.554 104.914 62.0117C105.418 61.4694 105.941 61.1789 106.483 61.1401C107.064 61.0627 107.626 61.1982 108.168 61.5469C108.749 61.8955 109.253 62.3604 109.679 62.9414C110.144 63.4837 110.473 64.1035 110.667 64.8008C110.899 65.498 110.938 66.1566 110.783 66.7764C110.24 68.752 109.524 70.8244 108.633 72.9937C107.781 75.1629 106.677 77.1579 105.321 78.9785C103.965 80.7992 102.338 82.3099 100.44 83.5107C98.5418 84.7116 96.3145 85.312 93.7578 85.312C92.1696 85.312 90.7557 85.0021 89.5161 84.3823C88.2765 83.8013 87.2306 83.0072 86.3784 82C85.5262 80.9928 84.8677 79.8114 84.4028 78.4556C83.9767 77.0998 83.7637 75.6665 83.7637 74.1558V42.3721C83.7637 41.2487 83.6668 40.4352 83.4731 39.9316C83.3182 39.4281 83.2407 38.9632 83.2407 38.5371C83.2407 37.9561 83.5506 37.4912 84.1704 37.1426C84.7902 36.7552 85.5262 36.5615 86.3784 36.5615C88.354 36.5615 89.9035 37.0845 91.0269 38.1304C92.189 39.1375 92.77 40.3577 92.77 41.791V72.0059ZM131.701 47.3691C131.701 49.5771 131.313 51.8433 130.539 54.1675C129.803 56.4917 128.679 58.6997 127.168 60.7915C125.696 62.8446 123.856 64.7039 121.648 66.3696C119.479 67.9966 116.961 69.2362 114.095 70.0884C114.482 71.0955 114.986 72.064 115.605 72.9937C116.264 73.8846 117.039 74.6593 117.93 75.3179C118.821 75.9764 119.847 76.4993 121.009 76.8867C122.21 77.2741 123.585 77.4678 125.135 77.4678C127.459 77.4678 129.454 77.0417 131.12 76.1895C132.785 75.2985 134.18 74.1364 135.303 72.7031C136.465 71.2699 137.395 69.6623 138.092 67.8804C138.79 66.0985 139.312 64.2972 139.661 62.4766C139.932 61.1595 140.475 60.2879 141.288 59.8618C142.14 59.397 142.993 59.2808 143.845 59.5132C144.736 59.7456 145.491 60.2492 146.111 61.0239C146.769 61.7599 147.041 62.6509 146.924 63.6968C146.769 64.8976 146.498 66.2728 146.111 67.8223C145.762 69.3717 145.22 70.9406 144.484 72.5288C143.748 74.117 142.799 75.6859 141.637 77.2354C140.513 78.7461 139.119 80.1019 137.453 81.3027C135.787 82.5036 133.831 83.472 131.584 84.208C129.338 84.944 126.762 85.312 123.856 85.312C121.145 85.312 118.511 84.7697 115.954 83.6851C113.436 82.6392 111.189 81.1284 109.214 79.1528C107.277 77.1385 105.708 74.6787 104.507 71.7734C103.345 68.8294 102.764 65.498 102.764 61.7793C102.764 58.0218 103.287 54.5355 104.333 51.3203C105.379 48.0664 106.754 45.258 108.458 42.895C110.163 40.5321 112.1 38.6921 114.269 37.375C116.438 36.0192 118.666 35.3413 120.951 35.3413C122.617 35.3413 124.108 35.6318 125.425 36.2129C126.781 36.7939 127.924 37.6268 128.854 38.7114C129.783 39.7573 130.48 41.0163 130.945 42.4883C131.449 43.9603 131.701 45.5872 131.701 47.3691ZM112.526 61.4307C112.526 61.7793 112.545 62.1279 112.584 62.4766C112.623 62.8252 112.642 63.1932 112.642 63.5806C114.114 62.8833 115.451 61.9924 116.651 60.9077C117.852 59.8231 118.879 58.5835 119.731 57.189C120.583 55.7944 121.242 54.2837 121.707 52.6567C122.171 50.991 122.404 49.2673 122.404 47.4854C122.404 46.1683 122.171 45.1418 121.707 44.4058C121.28 43.6698 120.68 43.3018 119.905 43.3018C118.937 43.3018 118.065 43.631 117.291 44.2896C116.555 44.9481 115.896 45.8197 115.315 46.9043C114.773 47.9502 114.308 49.151 113.92 50.5068C113.572 51.8239 113.281 53.1603 113.049 54.5161C112.816 55.8719 112.661 57.1696 112.584 58.4092C112.507 59.61 112.487 60.6172 112.526 61.4307ZM191.549 64.7427C191.782 63.5806 192.13 62.7477 192.595 62.2441C193.099 61.7018 193.622 61.4113 194.164 61.3726C194.745 61.2951 195.307 61.4307 195.849 61.7793C196.43 62.0892 196.934 62.5153 197.36 63.0576C197.786 63.5999 198.096 64.2197 198.29 64.917C198.522 65.5755 198.561 66.234 198.406 66.8926C198.057 67.9772 197.592 69.1781 197.011 70.4951C196.469 71.8122 195.791 73.1486 194.978 74.5044C194.203 75.8602 193.292 77.1966 192.247 78.5137C191.239 79.792 190.097 80.9347 188.818 81.9419C187.579 82.9491 186.184 83.7625 184.635 84.3823C183.085 85.0021 181.42 85.312 179.638 85.312C177.352 85.312 175.319 84.9246 173.537 84.1499C171.793 83.4139 170.321 82.368 169.121 81.0122C167.958 79.6177 167.068 77.9714 166.448 76.0732C165.867 74.1364 165.576 71.9865 165.576 69.6235V51.2041C164.685 51.3978 163.736 51.5527 162.729 51.6689C161.722 51.7464 160.657 51.7852 159.533 51.7852C156.899 51.7852 154.672 51.5527 152.851 51.0879C151.069 50.5843 149.675 50.1001 148.667 49.6353V50.5649C151.379 53.509 153.819 56.9565 155.989 60.9077C158.197 64.8201 160.056 68.9456 161.567 73.2842C163.116 77.6227 164.298 82.0194 165.111 86.4741C165.964 90.9289 166.39 95.1512 166.39 99.1411C166.39 104.099 166.002 108.554 165.228 112.505C164.492 116.457 163.426 119.807 162.032 122.558C160.676 125.308 159.01 127.4 157.035 128.833C155.098 130.305 152.948 131.041 150.585 131.041C148.493 131.041 146.75 130.518 145.355 129.472C143.961 128.465 142.838 127.109 141.985 125.405C141.172 123.739 140.571 121.841 140.184 119.71C139.835 117.58 139.661 115.411 139.661 113.203V50.2163L138.906 49.519C138.441 49.0542 137.976 48.6475 137.511 48.2988C137.085 47.9115 136.698 47.5241 136.349 47.1367C136.039 46.7106 135.768 46.207 135.536 45.626C135.342 45.0449 135.245 44.3089 135.245 43.418C135.245 42.8369 135.458 42.1978 135.884 41.5005C136.31 40.7645 137.008 40.3384 137.976 40.2222C138.17 40.2222 138.402 40.2222 138.673 40.2222C138.944 40.2222 139.274 40.2609 139.661 40.3384V6.28857C139.661 5.43636 139.584 4.75846 139.429 4.25488C139.312 3.7513 139.177 3.36393 139.022 3.09277C138.906 2.78288 138.77 2.55046 138.615 2.39551C138.499 2.20182 138.441 2.00814 138.441 1.81445C138.441 1.58203 138.557 1.38835 138.79 1.2334C139.022 1.07845 139.332 0.942871 139.719 0.82666C140.107 0.710449 140.513 0.632975 140.939 0.594238C141.404 0.516764 141.85 0.478027 142.276 0.478027C144.251 0.478027 145.801 1.00098 146.924 2.04688C148.086 3.05404 148.667 4.27425 148.667 5.70752V42.6045C150.101 42.9531 151.573 43.263 153.083 43.5342C154.594 43.8053 156.028 43.9409 157.383 43.9409C159.01 43.9409 160.502 43.8247 161.857 43.5923C163.213 43.3599 164.453 43.0693 165.576 42.7207V15.4692C165.576 13.0675 165.847 10.9176 166.39 9.01953C166.971 7.12142 167.745 5.5332 168.714 4.25488C169.721 2.93783 170.883 1.95003 172.2 1.2915C173.517 0.594238 174.931 0.245605 176.442 0.245605C178.185 0.245605 179.657 0.478027 180.858 0.942871C182.059 1.40771 183.047 2.04688 183.821 2.86035C184.596 3.63509 185.196 4.54541 185.623 5.59131C186.087 6.63721 186.417 7.74121 186.61 8.90332C186.804 10.0267 186.92 11.1694 186.959 12.3315C186.998 13.4937 187.017 14.5783 187.017 15.5854C187.017 20.0015 186.63 23.8752 185.855 27.2065C185.08 30.5379 184.092 33.4819 182.892 36.0386C181.729 38.5565 180.412 40.7257 178.94 42.5464C177.468 44.367 176.035 45.9359 174.641 47.2529V69.2749C174.641 71.6766 175.144 73.6522 176.151 75.2017C177.159 76.7124 178.747 77.4678 180.916 77.4678C182.311 77.4678 183.589 77.061 184.751 76.2476C185.913 75.3953 186.959 74.3494 187.889 73.1099C188.818 71.8315 189.593 70.4564 190.213 68.9844C190.833 67.4736 191.278 66.0597 191.549 64.7427ZM157.383 99.1411C157.383 96.9718 157.19 94.4346 156.802 91.5293C156.454 88.6628 155.911 85.6413 155.175 82.4648C154.439 79.2884 153.529 76.0539 152.444 72.7612C151.36 69.4686 150.101 66.3115 148.667 63.29V113.203C148.667 114.132 148.706 115.139 148.784 116.224C148.861 117.309 148.997 118.297 149.19 119.188C149.423 120.078 149.713 120.814 150.062 121.396C150.449 122.015 150.934 122.325 151.515 122.325C153.258 122.325 154.672 120.35 155.756 116.398C156.841 112.486 157.383 106.734 157.383 99.1411ZM174.641 36.6777C176.461 33.695 177.74 30.596 178.476 27.3809C179.25 24.127 179.638 20.4469 179.638 16.3408C179.638 14.5977 179.56 13.1838 179.405 12.0991C179.289 11.0145 179.095 10.1816 178.824 9.60059C178.592 8.98079 178.282 8.57406 177.895 8.38037C177.546 8.18669 177.139 8.08984 176.674 8.08984C176.016 8.08984 175.512 8.57406 175.164 9.54248C174.815 10.5109 174.641 11.6149 174.641 12.8545V36.6777ZM234.083 64.6265C234.431 63.3869 234.838 62.4959 235.303 61.9536C235.768 61.3726 236.31 61.082 236.93 61.082C237.395 61.082 237.879 61.237 238.382 61.5469C238.886 61.818 239.331 62.186 239.719 62.6509C240.145 63.1157 240.474 63.6387 240.707 64.2197C240.978 64.8008 241.113 65.3818 241.113 65.9629C241.113 66.0404 241.113 66.1953 241.113 66.4277C241.113 66.6602 241.075 66.8926 240.997 67.125C239.99 70.5726 238.808 73.6328 237.453 76.3057C236.136 78.9398 234.702 81.3027 233.153 83.3945C231.642 85.4863 230.073 87.3457 228.446 88.9727C226.819 90.6383 225.192 92.1685 223.565 93.563V114.132C223.565 117.27 223.197 119.904 222.461 122.035C221.764 124.204 220.834 125.947 219.672 127.264C218.51 128.62 217.193 129.588 215.721 130.169C214.249 130.75 212.758 131.041 211.247 131.041C209.581 131.041 208.051 130.673 206.657 129.937C205.262 129.24 204.042 128.271 202.996 127.032C201.989 125.792 201.195 124.34 200.614 122.674C200.071 121.008 199.8 119.226 199.8 117.328C199.8 114.307 200.188 111.634 200.962 109.31C201.776 106.985 202.861 104.855 204.216 102.918C205.572 100.981 207.141 99.1605 208.923 97.4561C210.705 95.7904 212.583 94.0859 214.559 92.3428V77.2354C213.126 79.637 211.46 81.5933 209.562 83.104C207.664 84.6535 205.437 85.4282 202.88 85.4282C200.904 85.4282 199.122 85.0215 197.534 84.208C195.985 83.3945 194.668 82.2518 193.583 80.7798C192.498 79.269 191.666 77.4678 191.084 75.376C190.542 73.2454 190.271 70.8825 190.271 68.2871C190.271 65.1494 190.484 61.9924 190.91 58.8159C191.375 55.6395 191.879 52.7729 192.421 50.2163C193.041 47.2336 193.757 44.3477 194.571 41.5586C194.764 41.055 194.9 40.5514 194.978 40.0479C195.094 39.5055 195.326 39.0213 195.675 38.5952C196.023 38.1691 196.566 37.8205 197.302 37.5493C198.076 37.2782 199.258 37.1426 200.846 37.1426C202.318 37.1426 203.267 37.4137 203.693 37.9561C204.119 38.4596 204.274 39.0601 204.158 39.7573C204.081 40.4546 203.848 41.1712 203.461 41.9072C203.112 42.6432 202.88 43.2437 202.764 43.7085C202.221 45.9165 201.737 47.9308 201.311 49.7515C200.885 51.5721 200.517 53.4121 200.207 55.2715C199.936 57.0921 199.723 59.0096 199.568 61.0239C199.413 62.9995 199.335 65.2269 199.335 67.7061C199.335 70.96 199.8 73.4198 200.73 75.0854C201.698 76.7511 203.054 77.584 204.797 77.584C205.998 77.584 207.102 77.1385 208.109 76.2476C209.155 75.3566 210.085 74.1751 210.898 72.7031C211.751 71.1924 212.487 69.488 213.106 67.5898C213.726 65.653 214.21 63.6387 214.559 61.5469V42.3721C214.559 41.2487 214.482 40.4352 214.327 39.9316C214.172 39.4281 214.094 38.9632 214.094 38.5371C214.094 37.9561 214.385 37.4912 214.966 37.1426C215.586 36.7552 216.322 36.5615 217.174 36.5615C219.149 36.5615 220.699 37.0845 221.822 38.1304C222.984 39.1375 223.565 40.3577 223.565 41.791V83.5688C225.735 81.1672 227.73 78.4362 229.55 75.376C231.371 72.3158 232.882 68.7326 234.083 64.6265ZM211.247 123.545C212.177 123.545 212.874 123.158 213.339 122.383C213.804 121.609 214.114 120.698 214.269 119.652C214.462 118.645 214.559 117.619 214.559 116.573C214.559 115.527 214.559 114.713 214.559 114.132V101.407C212.622 103.344 211.053 105.533 209.853 107.973C208.69 110.414 208.109 113.416 208.109 116.979C208.109 118.839 208.381 120.388 208.923 121.628C209.504 122.906 210.279 123.545 211.247 123.545Z" fill="#F97316"/>
</svg>
