<svg width="448" height="163" viewBox="0 0 448 163" fill="none" xmlns="http://www.w3.org/2000/svg">
<path d="M125.213 114.704L136.829 103.074M7 62.03L31.8554 37.2324M53.1235 15V15.8551M94.1222 145.829L93.6097 145.487M8.02496 103.758L8.19579 103.587M24.6807 129.753L48.3403 106.153M31.2576 80.5L94.7201 16.8812M51.159 146L137 60.0633M71.4021 83.0653L120.771 33.641" stroke="#F97316" stroke-width="14" stroke-miterlimit="3" stroke-linecap="round"/>
<path d="M221.141 82.6689C221.141 80.2673 221.393 78.1948 221.896 76.4517C222.439 74.6698 223.175 73.2171 224.104 72.0938C225.034 70.9316 226.099 70.0794 227.3 69.5371C228.54 68.9948 229.857 68.7236 231.251 68.7236C232.84 68.7236 234.389 69.111 235.9 69.8857C237.411 70.6605 238.747 71.842 239.909 73.4302C241.11 75.0184 242.059 77.0327 242.756 79.4731C243.492 81.9136 243.86 84.7995 243.86 88.1309C243.86 90.4551 243.705 92.7793 243.396 95.1035C243.124 97.389 242.679 99.5776 242.059 101.669C242.485 101.824 242.892 101.921 243.279 101.96C243.705 101.96 244.132 101.96 244.558 101.96C245.836 101.96 246.959 101.728 247.928 101.263C248.935 100.798 249.787 100.178 250.484 99.4033C251.22 98.6286 251.801 97.7183 252.228 96.6724C252.654 95.6265 252.964 94.5225 253.157 93.3604C253.235 92.8955 253.486 92.5081 253.913 92.1982C254.377 91.8883 254.9 91.6753 255.481 91.5591C256.062 91.4429 256.663 91.4429 257.283 91.5591C257.941 91.6753 258.503 91.9465 258.968 92.3726C259.433 92.7599 259.762 93.3216 259.956 94.0576C260.188 94.7549 260.188 95.6652 259.956 96.7886C259.607 98.4155 259.026 99.9456 258.212 101.379C257.438 102.773 256.45 104.013 255.249 105.098C254.048 106.182 252.634 107.035 251.007 107.654C249.38 108.274 247.56 108.584 245.545 108.584C244.461 108.584 243.415 108.526 242.408 108.41C241.401 108.293 240.413 108.08 239.444 107.771C237.972 110.327 236.055 112.38 233.692 113.93C231.329 115.518 228.404 116.312 224.918 116.312C222.168 116.312 219.747 115.828 217.655 114.859C215.602 113.891 213.859 112.535 212.425 110.792C211.031 109.01 209.965 106.899 209.229 104.458C208.532 102.018 208.184 99.3452 208.184 96.4399V39.6709C208.184 38.8187 208.106 38.1408 207.951 37.6372C207.835 37.1336 207.699 36.7463 207.544 36.4751C207.428 36.1652 207.293 35.9328 207.138 35.7778C207.021 35.5841 206.963 35.3905 206.963 35.1968C206.963 34.9644 207.08 34.7707 207.312 34.6157C207.544 34.4608 207.854 34.3252 208.242 34.209C208.629 34.0928 209.036 34.0153 209.462 33.9766C209.927 33.8991 210.372 33.8604 210.798 33.8604C212.774 33.8604 214.323 34.3833 215.447 35.4292C216.609 36.4364 217.19 37.6566 217.19 39.0898V94.813C217.19 96.7886 217.364 98.6092 217.713 100.275C218.062 101.941 218.584 103.393 219.282 104.633C219.979 105.834 220.851 106.783 221.896 107.48C222.981 108.139 224.24 108.468 225.673 108.468C227.145 108.468 228.404 108.1 229.45 107.364C230.496 106.589 231.368 105.562 232.065 104.284C230.361 103.083 228.83 101.689 227.475 100.101C226.158 98.4736 225.015 96.7305 224.046 94.8711C223.117 92.973 222.4 90.9974 221.896 88.9443C221.393 86.8525 221.141 84.7607 221.141 82.6689ZM228.521 82.2041C228.521 85.0706 229.024 87.7822 230.031 90.3389C231.077 92.8955 232.472 95.1035 234.215 96.9629C234.447 95.5684 234.602 94.1932 234.68 92.8374C234.757 91.4429 234.796 90.1839 234.796 89.0605C234.796 85.0706 234.37 81.991 233.518 79.8218C232.704 77.6525 231.755 76.5679 230.67 76.5679C229.896 76.5679 229.334 77.0908 228.985 78.1367C228.675 79.1439 228.521 80.4997 228.521 82.2041ZM279.072 116.312C277.678 116.312 276.244 116.099 274.772 115.673C273.339 115.247 272.022 114.511 270.821 113.465C269.659 112.419 268.691 111.044 267.916 109.339C267.18 107.596 266.812 105.408 266.812 102.773C266.812 98.9385 267.316 94.8905 268.323 90.6294C269.369 86.3296 270.86 81.6037 272.797 76.4517H263.732H262.396C262.357 77.6138 262.28 79.0858 262.164 80.8677C262.086 82.6496 261.931 84.5477 261.699 86.562C261.466 88.5763 261.156 90.61 260.769 92.6631C260.42 94.7161 259.975 96.6143 259.433 98.3574C259.045 99.597 258.425 100.314 257.573 100.507C256.76 100.701 255.946 100.565 255.133 100.101C254.319 99.597 253.661 98.8804 253.157 97.9507C252.654 97.021 252.537 96.0526 252.809 95.0454C253.118 93.8446 253.39 92.3919 253.622 90.6875C253.854 88.9443 254.029 87.1237 254.145 85.2256C254.3 83.2887 254.416 81.3713 254.494 79.4731C254.571 77.5363 254.629 75.8125 254.668 74.3018C253.196 73.4883 251.976 72.4618 251.007 71.2222C250.039 69.9438 249.555 68.4331 249.555 66.6899C249.555 65.8765 249.71 65.1405 250.02 64.4819C250.368 63.7847 250.814 63.2036 251.356 62.7388C251.898 62.2352 252.537 61.8672 253.273 61.6348C254.009 61.3636 254.765 61.228 255.54 61.228C256.237 61.228 256.953 61.3249 257.689 61.5186C258.464 61.7122 259.181 62.0609 259.839 62.5645C260.537 63.068 261.156 63.7266 261.699 64.54C262.241 65.3535 262.687 66.3607 263.035 67.5615C264.004 67.6777 264.817 67.7746 265.476 67.8521C266.173 67.8908 266.754 67.9295 267.219 67.9683C267.684 68.007 268.071 68.0264 268.381 68.0264C268.691 68.0264 269.001 68.0264 269.311 68.0264H275.528C275.876 68.0264 276.38 68.2394 277.039 68.6655C277.736 69.0916 278.414 69.6533 279.072 70.3506C279.731 71.0091 280.273 71.7257 280.699 72.5005C281.164 73.2752 281.338 74.0112 281.222 74.7085C281.222 74.9409 281.087 75.5026 280.815 76.3936C280.544 77.2845 280.215 78.4079 279.828 79.7637C279.44 81.1195 279.014 82.6883 278.549 84.4702C278.084 86.2134 277.658 88.0534 277.271 89.9902C276.884 91.9271 276.554 93.9414 276.283 96.0332C276.012 98.0863 275.876 100.101 275.876 102.076C275.876 102.89 275.973 103.684 276.167 104.458C276.361 105.233 276.651 105.931 277.039 106.55C277.426 107.131 277.91 107.596 278.491 107.945C279.111 108.293 279.828 108.468 280.641 108.468C281.997 108.468 283.159 108.042 284.127 107.189C285.096 106.337 285.909 105.272 286.568 103.994C287.226 102.715 287.749 101.34 288.137 99.8682C288.563 98.3574 288.911 96.9435 289.183 95.6265C289.415 94.3869 289.802 93.4959 290.345 92.9536C290.887 92.3726 291.449 92.082 292.03 92.082C292.495 92.082 292.979 92.237 293.482 92.5469C293.986 92.818 294.431 93.186 294.819 93.6509C295.245 94.1157 295.574 94.6387 295.807 95.2197C296.078 95.8008 296.213 96.3818 296.213 96.9629C296.213 97.1566 296.194 97.3115 296.155 97.4277C296.117 97.5439 296.097 97.6602 296.097 97.7764C295.555 99.752 294.838 101.824 293.947 103.994C293.095 106.163 291.991 108.158 290.635 109.979C289.279 111.799 287.653 113.31 285.754 114.511C283.856 115.712 281.629 116.312 279.072 116.312ZM296.039 55.7661C295.071 55.7661 294.141 55.5724 293.25 55.1851C292.398 54.7977 291.642 54.2747 290.984 53.6162C290.364 52.9577 289.861 52.2023 289.473 51.3501C289.086 50.4591 288.892 49.5101 288.892 48.5029C288.892 47.457 289.086 46.4886 289.473 45.5977C289.861 44.7067 290.364 43.9513 290.984 43.3315C291.642 42.673 292.398 42.1694 293.25 41.8208C294.141 41.4334 295.071 41.2397 296.039 41.2397C297.085 41.2397 298.053 41.4334 298.944 41.8208C299.835 42.1694 300.591 42.673 301.21 43.3315C301.869 43.9513 302.373 44.7067 302.721 45.5977C303.109 46.4886 303.302 47.457 303.302 48.5029C303.302 49.5101 303.109 50.4591 302.721 51.3501C302.373 52.2023 301.869 52.9577 301.21 53.6162C300.591 54.2747 299.835 54.7977 298.944 55.1851C298.053 55.5724 297.085 55.7661 296.039 55.7661ZM298.77 103.006C298.77 103.277 298.789 103.722 298.828 104.342C298.867 104.923 298.983 105.524 299.177 106.144C299.37 106.763 299.68 107.306 300.106 107.771C300.533 108.235 301.133 108.468 301.908 108.468C303.07 108.468 304.077 108.042 304.929 107.189C305.82 106.337 306.576 105.272 307.195 103.994C307.854 102.715 308.396 101.34 308.822 99.8682C309.248 98.3574 309.597 96.9435 309.868 95.6265C310.101 94.4256 310.449 93.554 310.914 93.0117C311.418 92.4694 311.941 92.1789 312.483 92.1401C313.064 92.0627 313.626 92.1982 314.168 92.5469C314.749 92.8955 315.253 93.3604 315.679 93.9414C316.144 94.4837 316.473 95.1035 316.667 95.8008C316.899 96.498 316.938 97.1566 316.783 97.7764C316.24 99.752 315.524 101.824 314.633 103.994C313.781 106.163 312.677 108.158 311.321 109.979C309.965 111.799 308.338 113.31 306.44 114.511C304.542 115.712 302.314 116.312 299.758 116.312C298.17 116.312 296.756 116.002 295.516 115.382C294.277 114.801 293.231 114.007 292.378 113C291.526 111.993 290.868 110.811 290.403 109.456C289.977 108.1 289.764 106.667 289.764 105.156V73.3721C289.764 72.2487 289.667 71.4352 289.473 70.9316C289.318 70.4281 289.241 69.9632 289.241 69.5371C289.241 68.9561 289.551 68.4912 290.17 68.1426C290.79 67.7552 291.526 67.5615 292.378 67.5615C294.354 67.5615 295.903 68.0845 297.027 69.1304C298.189 70.1375 298.77 71.3577 298.77 72.791V103.006ZM337.701 78.3691C337.701 80.5771 337.313 82.8433 336.539 85.1675C335.803 87.4917 334.679 89.6997 333.168 91.7915C331.696 93.8446 329.856 95.7039 327.648 97.3696C325.479 98.9966 322.961 100.236 320.095 101.088C320.482 102.096 320.986 103.064 321.605 103.994C322.264 104.885 323.039 105.659 323.93 106.318C324.821 106.976 325.847 107.499 327.009 107.887C328.21 108.274 329.585 108.468 331.135 108.468C333.459 108.468 335.454 108.042 337.12 107.189C338.785 106.299 340.18 105.136 341.303 103.703C342.465 102.27 343.395 100.662 344.092 98.8804C344.79 97.0985 345.312 95.2972 345.661 93.4766C345.932 92.1595 346.475 91.2879 347.288 90.8618C348.14 90.397 348.993 90.2808 349.845 90.5132C350.736 90.7456 351.491 91.2492 352.111 92.0239C352.769 92.7599 353.041 93.6509 352.924 94.6968C352.769 95.8976 352.498 97.2728 352.111 98.8223C351.762 100.372 351.22 101.941 350.484 103.529C349.748 105.117 348.799 106.686 347.637 108.235C346.513 109.746 345.119 111.102 343.453 112.303C341.787 113.504 339.831 114.472 337.584 115.208C335.338 115.944 332.762 116.312 329.856 116.312C327.145 116.312 324.511 115.77 321.954 114.685C319.436 113.639 317.189 112.128 315.214 110.153C313.277 108.139 311.708 105.679 310.507 102.773C309.345 99.8294 308.764 96.498 308.764 92.7793C308.764 89.0218 309.287 85.5355 310.333 82.3203C311.379 79.0664 312.754 76.258 314.458 73.895C316.163 71.5321 318.1 69.6921 320.269 68.375C322.438 67.0192 324.666 66.3413 326.951 66.3413C328.617 66.3413 330.108 66.6318 331.425 67.2129C332.781 67.7939 333.924 68.6268 334.854 69.7114C335.783 70.7573 336.48 72.0163 336.945 73.4883C337.449 74.9603 337.701 76.5872 337.701 78.3691ZM318.526 92.4307C318.526 92.7793 318.545 93.1279 318.584 93.4766C318.623 93.8252 318.642 94.1932 318.642 94.5806C320.114 93.8833 321.451 92.9924 322.651 91.9077C323.852 90.8231 324.879 89.5835 325.731 88.189C326.583 86.7944 327.242 85.2837 327.707 83.6567C328.171 81.991 328.404 80.2673 328.404 78.4854C328.404 77.1683 328.171 76.1418 327.707 75.4058C327.28 74.6698 326.68 74.3018 325.905 74.3018C324.937 74.3018 324.065 74.631 323.291 75.2896C322.555 75.9481 321.896 76.8197 321.315 77.9043C320.773 78.9502 320.308 80.151 319.92 81.5068C319.572 82.8239 319.281 84.1603 319.049 85.5161C318.816 86.8719 318.661 88.1696 318.584 89.4092C318.507 90.61 318.487 91.6172 318.526 92.4307ZM397.549 95.7427C397.782 94.5806 398.13 93.7477 398.595 93.2441C399.099 92.7018 399.622 92.4113 400.164 92.3726C400.745 92.2951 401.307 92.4307 401.849 92.7793C402.43 93.0892 402.934 93.5153 403.36 94.0576C403.786 94.5999 404.096 95.2197 404.29 95.917C404.522 96.5755 404.561 97.234 404.406 97.8926C404.057 98.9772 403.592 100.178 403.011 101.495C402.469 102.812 401.791 104.149 400.978 105.504C400.203 106.86 399.292 108.197 398.247 109.514C397.239 110.792 396.097 111.935 394.818 112.942C393.579 113.949 392.184 114.763 390.635 115.382C389.085 116.002 387.42 116.312 385.638 116.312C383.352 116.312 381.319 115.925 379.537 115.15C377.793 114.414 376.321 113.368 375.121 112.012C373.958 110.618 373.068 108.971 372.448 107.073C371.867 105.136 371.576 102.986 371.576 100.624V82.2041C370.685 82.3978 369.736 82.5527 368.729 82.6689C367.722 82.7464 366.657 82.7852 365.533 82.7852C362.899 82.7852 360.672 82.5527 358.851 82.0879C357.069 81.5843 355.675 81.1001 354.667 80.6353V81.5649C357.379 84.509 359.819 87.9565 361.989 91.9077C364.197 95.8201 366.056 99.9456 367.567 104.284C369.116 108.623 370.298 113.019 371.111 117.474C371.964 121.929 372.39 126.151 372.39 130.141C372.39 135.099 372.002 139.554 371.228 143.505C370.492 147.457 369.426 150.807 368.032 153.558C366.676 156.308 365.01 158.4 363.035 159.833C361.098 161.305 358.948 162.041 356.585 162.041C354.493 162.041 352.75 161.518 351.355 160.472C349.961 159.465 348.838 158.109 347.985 156.405C347.172 154.739 346.571 152.841 346.184 150.71C345.835 148.58 345.661 146.411 345.661 144.203V81.2163L344.906 80.519C344.441 80.0542 343.976 79.6475 343.511 79.2988C343.085 78.9115 342.698 78.5241 342.349 78.1367C342.039 77.7106 341.768 77.207 341.536 76.626C341.342 76.0449 341.245 75.3089 341.245 74.418C341.245 73.8369 341.458 73.1978 341.884 72.5005C342.31 71.7645 343.008 71.3384 343.976 71.2222C344.17 71.2222 344.402 71.2222 344.673 71.2222C344.944 71.2222 345.274 71.2609 345.661 71.3384V37.2886C345.661 36.4364 345.584 35.7585 345.429 35.2549C345.312 34.7513 345.177 34.3639 345.022 34.0928C344.906 33.7829 344.77 33.5505 344.615 33.3955C344.499 33.2018 344.441 33.0081 344.441 32.8145C344.441 32.582 344.557 32.3883 344.79 32.2334C345.022 32.0785 345.332 31.9429 345.719 31.8267C346.107 31.7104 346.513 31.633 346.939 31.5942C347.404 31.5168 347.85 31.478 348.276 31.478C350.251 31.478 351.801 32.001 352.924 33.0469C354.086 34.054 354.667 35.2743 354.667 36.7075V73.6045C356.101 73.9531 357.573 74.263 359.083 74.5342C360.594 74.8053 362.028 74.9409 363.383 74.9409C365.01 74.9409 366.502 74.8247 367.857 74.5923C369.213 74.3599 370.453 74.0693 371.576 73.7207V46.4692C371.576 44.0675 371.847 41.9176 372.39 40.0195C372.971 38.1214 373.745 36.5332 374.714 35.2549C375.721 33.9378 376.883 32.95 378.2 32.2915C379.517 31.5942 380.931 31.2456 382.442 31.2456C384.185 31.2456 385.657 31.478 386.858 31.9429C388.059 32.4077 389.047 33.0469 389.821 33.8604C390.596 34.6351 391.196 35.5454 391.623 36.5913C392.087 37.6372 392.417 38.7412 392.61 39.9033C392.804 41.0267 392.92 42.1694 392.959 43.3315C392.998 44.4937 393.017 45.5783 393.017 46.5854C393.017 51.0015 392.63 54.8752 391.855 58.2065C391.08 61.5379 390.092 64.4819 388.892 67.0386C387.729 69.5565 386.412 71.7257 384.94 73.5464C383.468 75.367 382.035 76.9359 380.641 78.2529V100.275C380.641 102.677 381.144 104.652 382.151 106.202C383.159 107.712 384.747 108.468 386.916 108.468C388.311 108.468 389.589 108.061 390.751 107.248C391.913 106.395 392.959 105.349 393.889 104.11C394.818 102.832 395.593 101.456 396.213 99.9844C396.833 98.4736 397.278 97.0597 397.549 95.7427ZM363.383 130.141C363.383 127.972 363.19 125.435 362.802 122.529C362.454 119.663 361.911 116.641 361.175 113.465C360.439 110.288 359.529 107.054 358.444 103.761C357.36 100.469 356.101 97.3115 354.667 94.29V144.203C354.667 145.132 354.706 146.139 354.784 147.224C354.861 148.309 354.997 149.297 355.19 150.188C355.423 151.078 355.713 151.814 356.062 152.396C356.449 153.015 356.934 153.325 357.515 153.325C359.258 153.325 360.672 151.35 361.756 147.398C362.841 143.486 363.383 137.734 363.383 130.141ZM380.641 67.6777C382.461 64.695 383.74 61.596 384.476 58.3809C385.25 55.127 385.638 51.4469 385.638 47.3408C385.638 45.5977 385.56 44.1838 385.405 43.0991C385.289 42.0145 385.095 41.1816 384.824 40.6006C384.592 39.9808 384.282 39.5741 383.895 39.3804C383.546 39.1867 383.139 39.0898 382.674 39.0898C382.016 39.0898 381.512 39.5741 381.164 40.5425C380.815 41.5109 380.641 42.6149 380.641 43.8545V67.6777ZM440.083 95.6265C440.431 94.3869 440.838 93.4959 441.303 92.9536C441.768 92.3726 442.31 92.082 442.93 92.082C443.395 92.082 443.879 92.237 444.382 92.5469C444.886 92.818 445.331 93.186 445.719 93.6509C446.145 94.1157 446.474 94.6387 446.707 95.2197C446.978 95.8008 447.113 96.3818 447.113 96.9629C447.113 97.0404 447.113 97.1953 447.113 97.4277C447.113 97.6602 447.075 97.8926 446.997 98.125C445.99 101.573 444.808 104.633 443.453 107.306C442.136 109.94 440.702 112.303 439.153 114.395C437.642 116.486 436.073 118.346 434.446 119.973C432.819 121.638 431.192 123.168 429.565 124.563V145.132C429.565 148.27 429.197 150.904 428.461 153.035C427.764 155.204 426.834 156.947 425.672 158.264C424.51 159.62 423.193 160.588 421.721 161.169C420.249 161.75 418.758 162.041 417.247 162.041C415.581 162.041 414.051 161.673 412.657 160.937C411.262 160.24 410.042 159.271 408.996 158.032C407.989 156.792 407.195 155.34 406.614 153.674C406.071 152.008 405.8 150.226 405.8 148.328C405.8 145.307 406.188 142.634 406.962 140.31C407.776 137.985 408.861 135.855 410.216 133.918C411.572 131.981 413.141 130.16 414.923 128.456C416.705 126.79 418.583 125.086 420.559 123.343V108.235C419.126 110.637 417.46 112.593 415.562 114.104C413.664 115.653 411.437 116.428 408.88 116.428C406.904 116.428 405.122 116.021 403.534 115.208C401.985 114.395 400.668 113.252 399.583 111.78C398.498 110.269 397.666 108.468 397.084 106.376C396.542 104.245 396.271 101.882 396.271 99.2871C396.271 96.1494 396.484 92.9924 396.91 89.8159C397.375 86.6395 397.879 83.7729 398.421 81.2163C399.041 78.2336 399.757 75.3477 400.571 72.5586C400.764 72.055 400.9 71.5514 400.978 71.0479C401.094 70.5055 401.326 70.0213 401.675 69.5952C402.023 69.1691 402.566 68.8205 403.302 68.5493C404.076 68.2782 405.258 68.1426 406.846 68.1426C408.318 68.1426 409.267 68.4137 409.693 68.9561C410.119 69.4596 410.274 70.0601 410.158 70.7573C410.081 71.4546 409.848 72.1712 409.461 72.9072C409.112 73.6432 408.88 74.2437 408.764 74.7085C408.221 76.9165 407.737 78.9308 407.311 80.7515C406.885 82.5721 406.517 84.4121 406.207 86.2715C405.936 88.0921 405.723 90.0096 405.568 92.0239C405.413 93.9995 405.335 96.2269 405.335 98.7061C405.335 101.96 405.8 104.42 406.73 106.085C407.698 107.751 409.054 108.584 410.797 108.584C411.998 108.584 413.102 108.139 414.109 107.248C415.155 106.357 416.085 105.175 416.898 103.703C417.751 102.192 418.487 100.488 419.106 98.5898C419.726 96.653 420.21 94.6387 420.559 92.5469V73.3721C420.559 72.2487 420.482 71.4352 420.327 70.9316C420.172 70.4281 420.094 69.9632 420.094 69.5371C420.094 68.9561 420.385 68.4912 420.966 68.1426C421.586 67.7552 422.322 67.5615 423.174 67.5615C425.149 67.5615 426.699 68.0845 427.822 69.1304C428.984 70.1375 429.565 71.3577 429.565 72.791V114.569C431.735 112.167 433.73 109.436 435.55 106.376C437.371 103.316 438.882 99.7326 440.083 95.6265ZM417.247 154.545C418.177 154.545 418.874 154.158 419.339 153.383C419.804 152.609 420.114 151.698 420.269 150.652C420.462 149.645 420.559 148.619 420.559 147.573C420.559 146.527 420.559 145.713 420.559 145.132V132.407C418.622 134.344 417.053 136.533 415.853 138.973C414.69 141.414 414.109 144.416 414.109 147.979C414.109 149.839 414.381 151.388 414.923 152.628C415.504 153.906 416.279 154.545 417.247 154.545Z" fill="#F97316"/>
</svg>
